<svg width="56" height="56" viewBox="0 0 56 56" fill="none" xmlns="http://www.w3.org/2000/svg">
<path d="M15.0391 15.3672C16.1273 15.3672 17.0078 14.4867 17.0078 13.3984V1.96875C17.0078 0.880469 16.1273 0 15.0391 0C13.9508 0 13.0703 0.880469 13.0703 1.96875V13.3984C13.0703 14.4867 13.9508 15.3672 15.0391 15.3672ZM48.5625 23.2422H42C42 21.0656 40.2391 19.3047 38.0625 19.3047H10.9375C8.76094 19.3047 7 21.0656 7 23.2422V36.8047C7 36.9906 7.01094 37.1711 7.03828 37.3461C7.01094 37.7289 7 38.1117 7 38.5C7 48.1633 14.8367 56 24.5 56C33.2555 56 40.507 49.5742 41.7977 41.1797H48.5625C50.7391 41.1797 52.5 39.4187 52.5 37.2422V27.1797C52.5 25.0031 50.7391 23.2422 48.5625 23.2422ZM38.0625 37.2422H38.0023C38.0406 37.6578 38.0625 38.0734 38.0625 38.5C38.0625 45.9922 31.9922 52.0625 24.5 52.0625C17.0078 52.0625 10.9375 45.9922 10.9375 38.5C10.9375 38.0734 10.9594 37.6578 10.9977 37.2422H10.9375V23.2422H38.0625V37.2422ZM48.5625 36.8047H42.4375V27.1797H48.5625V36.8047ZM33.5234 15.3672C34.6117 15.3672 35.4922 14.4867 35.4922 13.3984V1.96875C35.4922 0.880469 34.6117 0 33.5234 0C32.4352 0 31.5547 0.880469 31.5547 1.96875V13.3984C31.5547 14.4867 32.4352 15.3672 33.5234 15.3672ZM24.2266 15.3672C25.3148 15.3672 26.1953 14.4867 26.1953 13.3984V1.96875C26.1953 0.880469 25.3148 0 24.2266 0C23.1383 0 22.2578 0.880469 22.2578 1.96875V13.3984C22.2578 14.4867 23.1383 15.3672 24.2266 15.3672Z" fill="white"/>
</svg>
