<svg width="66" height="66" viewBox="0 0 66 66" fill="none" xmlns="http://www.w3.org/2000/svg">
<path d="M46.5996 39.9932C42.9773 36.8414 38.2465 34.9336 33.0645 34.9336C27.8824 34.9336 23.1516 36.8414 19.5229 39.9996C19.4226 40.09 19.3613 40.2156 19.3517 40.3502C19.3421 40.4847 19.3849 40.6178 19.4713 40.7215L21.7916 43.4865C21.9785 43.7057 22.3072 43.7314 22.5264 43.5445C25.3365 41.0695 29.0232 39.5742 33.0645 39.5742C37.1057 39.5742 40.7924 41.0695 43.6025 43.5381C43.8217 43.725 44.1504 43.6992 44.3373 43.4801L46.6576 40.715C46.8381 40.5023 46.8123 40.1801 46.5996 39.9932ZM54.1664 30.9633C48.4494 26.2002 41.0953 23.332 33.0645 23.332C25.0336 23.332 17.6795 26.2002 11.9561 30.9633C11.8514 31.0516 11.7858 31.1777 11.7737 31.3142C11.7617 31.4506 11.804 31.5863 11.8916 31.6916L14.2119 34.4566C14.3924 34.6758 14.7211 34.7016 14.9338 34.5211C19.8516 30.4348 26.1744 27.9727 33.0645 27.9727C39.9545 27.9727 46.2773 30.4348 51.1887 34.5211C51.4078 34.7016 51.7301 34.6758 51.9106 34.4566L54.2309 31.6916C54.4113 31.4725 54.3856 31.1437 54.1664 30.9633V30.9633ZM61.6881 22.0043C53.8635 15.5848 43.8475 11.7305 32.9356 11.7305C22.0945 11.7305 12.143 15.5332 4.3377 21.8754C4.28408 21.9185 4.23961 21.9719 4.20693 22.0324C4.17425 22.0929 4.15401 22.1594 4.1474 22.2278C4.1408 22.2963 4.14796 22.3654 4.16846 22.4311C4.18897 22.4967 4.2224 22.5576 4.2668 22.6102L6.58711 25.3752C6.76758 25.5879 7.08985 25.6201 7.30254 25.4461C14.3086 19.7678 23.2225 16.3711 32.9356 16.3711C42.7195 16.3711 51.6914 19.8193 58.7168 25.5686C58.9359 25.749 59.2582 25.7168 59.4387 25.4977L61.759 22.7326C61.9459 22.5135 61.9137 22.1848 61.6881 22.0043ZM28.875 50.1445C28.875 51.2385 29.3096 52.2878 30.0832 53.0613C30.8568 53.8349 31.906 54.2695 33 54.2695C34.094 54.2695 35.1432 53.8349 35.9168 53.0613C36.6904 52.2878 37.125 51.2385 37.125 50.1445C37.125 49.0505 36.6904 48.0013 35.9168 47.2277C35.1432 46.4541 34.094 46.0195 33 46.0195C31.906 46.0195 30.8568 46.4541 30.0832 47.2277C29.3096 48.0013 28.875 49.0505 28.875 50.1445Z" fill="white"/>
</svg>
