<svg width="68" height="68" viewBox="0 0 68 68" fill="none" xmlns="http://www.w3.org/2000/svg">
<path d="M56.8238 13.9984L54.0082 11.1828C53.9084 11.0839 53.7735 11.0285 53.633 11.0285C53.4925 11.0285 53.3577 11.0839 53.2578 11.1828L11.1762 53.2512C11.0773 53.351 11.0218 53.4859 11.0218 53.6264C11.0218 53.7669 11.0773 53.9017 11.1762 54.0016L13.9918 56.8172C14.1977 57.023 14.5363 57.023 14.7422 56.8172L56.8172 14.7422C57.0297 14.543 57.0297 14.2043 56.8238 13.9984ZM20.1875 29.75C25.4602 29.75 29.75 25.4602 29.75 20.1875C29.75 14.9148 25.4602 10.625 20.1875 10.625C14.9148 10.625 10.625 14.9148 10.625 20.1875C10.625 25.4602 14.9148 29.75 20.1875 29.75ZM20.1875 15.4062C22.8238 15.4062 24.9688 17.5512 24.9688 20.1875C24.9688 22.8238 22.8238 24.9688 20.1875 24.9688C17.5512 24.9688 15.4062 22.8238 15.4062 20.1875C15.4062 17.5512 17.5512 15.4062 20.1875 15.4062ZM47.8125 38.25C42.5398 38.25 38.25 42.5398 38.25 47.8125C38.25 53.0852 42.5398 57.375 47.8125 57.375C53.0852 57.375 57.375 53.0852 57.375 47.8125C57.375 42.5398 53.0852 38.25 47.8125 38.25ZM47.8125 52.5938C45.1762 52.5938 43.0312 50.4488 43.0312 47.8125C43.0312 45.1762 45.1762 43.0312 47.8125 43.0312C50.4488 43.0312 52.5938 45.1762 52.5938 47.8125C52.5938 50.4488 50.4488 52.5938 47.8125 52.5938Z" fill="white"/>
</svg>
